<svg width="766" height="601" viewBox="0 0 766 601" fill="none" xmlns="http://www.w3.org/2000/svg">
<circle cx="371.11" cy="323.734" r="275.766" fill="white" stroke="#EC7F67" stroke-width="3"/>
<circle cx="371.11" cy="323.734" r="266.839" fill="#EC7F67"/>
<path d="M323.07 531.097L372.133 505.21V483.479H282.656L323.07 531.097Z" fill="#231F20"/>
<path d="M253.989 593.223C294.895 593.223 328.056 560.062 328.056 519.156C328.056 478.251 294.895 445.09 253.989 445.09C213.083 445.09 179.922 478.251 179.922 519.156C179.922 560.062 213.083 593.223 253.989 593.223Z" fill="#414042"/>
<path d="M253.989 564.389C279.274 564.389 299.772 543.891 299.772 518.606C299.772 493.321 279.274 472.823 253.989 472.823C228.704 472.823 208.206 493.321 208.206 518.606C208.206 543.891 228.704 564.389 253.989 564.389Z" fill="#2AB5B5"/>
<path d="M386.135 373.048C386.135 373.048 332.601 414.169 395.096 483.479L319.185 483.463L278.834 373.048H386.135Z" fill="#13989B"/>
<path d="M371.282 136.502L381.911 109.653L412.469 115.41L403.575 155.916C403.575 155.916 390.768 155.824 371.282 136.502Z" fill="#F2AC9E"/>
<path d="M134.357 442.904V400.407C134.357 392.138 141.06 385.435 149.329 385.435H177.332L134.357 442.904Z" fill="#4F4F4F"/>
<path d="M461.925 60.8125C461.925 60.8125 472.266 120.277 427.453 133.204H421.42C406.234 133.204 383.501 107.349 383.501 90.9753L383.454 62.0725L461.925 60.8125Z" fill="#F9D1B7"/>
<path d="M124.912 491.263H360.569C360.569 491.263 354.768 364.086 241.177 364.086C129.038 364.087 124.912 491.263 124.912 491.263Z" fill="#2AB5B5"/>
<path d="M480.519 226.914C459.657 226.914 440.225 216.314 428.931 198.773L398.375 151.316L398.373 151.317C397.62 150.155 396.737 149.053 395.718 148.034C387.891 140.206 375.2 140.206 367.372 148.034C359.544 155.862 359.544 168.552 367.372 176.38L408.425 229.028C420.052 243.937 437.903 252.654 456.81 252.654H546.895V226.914H480.519Z" fill="#13989B"/>
<path d="M432.186 203.179L401.631 155.721L401.628 155.722C400.875 154.56 399.992 153.458 398.973 152.439C391.146 144.611 378.455 144.611 370.627 152.439C362.799 160.267 362.799 172.957 370.627 180.785L407.004 215.879C407.004 216.358 432.186 203.526 432.186 203.179Z" fill="#37BCBF"/>
<path d="M131.599 491.263H354.768C354.768 491.263 338.555 377.772 241.276 377.772C143.998 377.772 131.599 491.263 131.599 491.263Z" fill="#3AC5CE"/>
<path d="M83.6067 219.567V318.541C83.6067 329.729 92.6767 338.798 103.864 338.798H217.784C228.972 338.798 238.041 329.729 238.041 318.541V219.567C238.041 208.379 228.971 199.31 217.784 199.31H103.864C92.6767 199.309 83.6067 208.379 83.6067 219.567Z" fill="#13989B"/>
<path d="M97.4531 231.982C97.4531 220.795 106.523 211.726 117.71 211.726H229.691C226.626 204.432 219.416 199.31 211.008 199.31H97.0883C85.9004 199.31 76.8315 208.379 76.8315 219.567V318.541C76.8315 329.729 85.901 338.798 97.0883 338.798H99.0274C98.0139 336.387 97.4531 333.738 97.4531 330.958V231.982Z" fill="#3AC5CE"/>
<path d="M231.266 318.541V219.567C231.266 216.787 230.704 214.138 229.692 211.726H117.711C106.523 211.726 97.4539 220.795 97.4539 231.983V330.957C97.4539 333.738 98.0152 336.386 99.0282 338.798H211.009C222.197 338.798 231.266 329.729 231.266 318.541Z" fill="#2AB5B5"/>
<path d="M108.177 338.591C108.177 345.114 113.464 350.401 119.987 350.401H202.658C209.181 350.401 214.468 345.114 214.468 338.591H108.177Z" fill="#4F4F4F"/>
<path d="M129.627 350.253C129.627 353.203 133.047 355.594 137.266 355.594H190.741C194.96 355.594 198.38 353.203 198.38 350.253H129.627Z" fill="#6D6E71"/>
<path d="M133.873 355.126H386.135C391.084 355.126 395.096 359.138 395.096 364.087C395.096 369.036 391.084 373.048 386.135 373.048H133.873C128.924 373.048 124.911 369.037 124.911 364.087C124.912 359.138 128.924 355.126 133.873 355.126Z" fill="#4F4F4F"/>
<path d="M117.622 406.338V416.082C117.622 419.588 120.463 422.43 123.969 422.43H134.357L142.906 405.019C144.045 402.7 142.357 399.99 139.774 399.99H123.97C120.464 399.99 117.622 402.832 117.622 406.338Z" fill="#4AACD3"/>
<path d="M400.919 155.15C392.128 138.806 379.921 134.932 369.218 135.915C369.218 135.915 361.04 137.164 347.538 148.512C285.002 201.069 281.32 289.854 281.32 289.854C287.927 290.429 288.667 289.361 297.838 288.13C310.354 286.453 382.117 280.074 382.012 279.656C371.669 238.43 431.761 212.489 400.919 155.15Z" fill="#3AC5CE"/>
<path d="M399.083 11.5979C429.005 11.5979 453.71 33.9098 457.485 62.8028H457.916C457.964 61.8329 457.992 60.8585 457.992 59.8766C457.992 27.342 431.618 0.967892 399.083 0.967892C366.548 0.967892 340.174 27.342 340.174 59.8766C340.174 61.6686 340.259 63.4406 340.415 65.1918C343.103 35.148 368.34 11.5979 399.083 11.5979Z" fill="#13989B"/>
<path d="M457.485 62.8022C453.71 33.9092 429.005 11.5973 399.083 11.5973C368.34 11.5973 343.103 35.1474 340.415 65.1912C343.103 95.2345 368.341 118.785 399.083 118.785C400.146 118.785 401.2 118.754 402.249 118.698V81.8438C402.249 71.327 410.775 62.8017 421.292 62.8017H457.485V62.8022Z" fill="#3AC5CE"/>
<path d="M457.751 65.1918C457.821 64.4001 457.875 63.6026 457.916 62.8028H457.485C457.588 63.594 457.679 64.3903 457.751 65.1918Z" fill="#3AC5CE"/>
<path d="M384.441 37.0417L453.107 0.967316C453.107 0.967316 495.628 31.0858 485.883 70.0635C485.883 70.0635 469.938 83.3514 412.358 70.0635L384.441 37.0417Z" fill="#B6FCFC"/>
<path d="M546.895 227.013C546.895 227.013 595.859 224.405 595.859 252.752H546.895V227.013Z" fill="#FFAB84"/>
<path d="M361.963 139.688L373.61 125.687C373.61 125.687 404.086 147.994 412.468 146.879C412.468 146.879 413.534 159.818 407.006 166.667C407.006 166.668 387.814 162.841 361.963 139.688Z" fill="#13989B"/>
<path d="M467.556 231.63C446.694 231.63 427.262 221.03 415.968 203.489L385.412 156.032L385.41 156.033C384.656 154.871 383.774 153.769 382.755 152.75C374.927 144.922 362.236 144.922 354.409 152.75C346.582 160.578 346.581 173.269 354.409 181.096L395.463 233.744C407.089 248.653 424.941 257.37 443.848 257.37H533.933V231.63H467.556Z" fill="#13989B"/>
<path d="M415.777 203.106L385.221 155.649L385.219 155.65C384.465 154.488 383.583 153.385 382.564 152.367C374.736 144.539 362.045 144.539 354.218 152.367C346.391 160.194 346.39 172.885 354.218 180.713L395.272 233.36C394.889 233.744 415.777 204.963 415.777 203.106Z" fill="#37BCBF"/>
<path d="M639.591 239.054H568.182V300.799H639.591V239.054Z" fill="#3AC5CE"/>
<path d="M381.293 273.335L498.647 283.677L499.844 451.969H460.057V319.897H366.067L381.293 273.335Z" fill="#2B2B2B"/>
<path d="M603.887 252.185V261.652C603.887 268.881 598.025 274.743 590.796 274.743H568.182V239.054L590.819 239.094C598.04 239.107 603.887 244.964 603.887 252.185Z" fill="#13989B"/>
<path d="M691.933 593.223C732.839 593.223 766 560.062 766 519.156C766 478.251 732.839 445.09 691.933 445.09C651.027 445.09 617.866 478.251 617.866 519.156C617.866 560.062 651.027 593.223 691.933 593.223Z" fill="#414042"/>
<path d="M454.213 451.969V483.48H528.617V475.885C533.454 446.037 517.909 451.969 504.701 451.969H454.213Z" fill="#13989B"/>
<path d="M438.605 451.449L438.893 484.199L513.009 482.96V475.365C513.009 462.157 518.301 437.761 476.934 460.167L445.213 459.78L438.605 451.449Z" fill="#2AB5B5"/>
<path d="M609.217 300.799H578.811V313.696H609.217V300.799Z" fill="#13989B"/>
<path d="M691.933 564.939C717.218 564.939 737.715 544.442 737.715 519.156C737.715 493.871 717.218 473.374 691.933 473.374C666.648 473.374 646.15 493.871 646.15 519.156C646.15 544.442 666.648 564.939 691.933 564.939Z" fill="#2AB5B5"/>
<path d="M592.517 390.339L685.19 526.828C688.362 531.546 694.658 532.979 699.56 530.098C704.854 526.986 706.469 520.078 703.104 514.94L611.073 377.772L592.517 390.339Z" fill="#AFDFE0"/>
<path d="M375.745 278.848L281.319 289.854C281.319 316.427 305.362 319.897 305.362 319.897H345.239H371.282H439.228L431.616 454.323L485.816 451.641L479.015 286.476L375.745 278.848Z" fill="#3F3F3F"/>
<path d="M533.933 231.63C533.933 231.63 582.897 229.023 582.897 257.37H533.933V231.63Z" fill="#FEC194"/>
<path d="M560.336 272.474C568.069 272.474 574.338 266.205 574.338 258.472C574.338 250.738 568.069 244.469 560.336 244.469C552.602 244.469 546.333 250.738 546.333 258.472C546.333 266.205 552.602 272.474 560.336 272.474Z" fill="#414042"/>
<path d="M569.51 301.488L562.032 401.497L550.925 477.721H359.103L359.846 499.451H587.833C594.003 499.451 599.004 494.45 599.004 488.281V398.97V301.488H569.51Z" fill="#13989B"/>
<path d="M639.591 300.799C648.092 300.799 654.983 286.991 654.983 269.958C654.983 252.925 648.092 239.117 639.591 239.117C631.09 239.117 624.198 252.925 624.198 269.958C624.198 286.991 631.09 300.799 639.591 300.799Z" fill="#BDEBF9"/>
<path d="M165.12 463.192C165.12 467.349 168.49 470.72 172.648 470.72H302.579C306.737 470.72 310.108 467.35 310.108 463.192C310.108 459.034 306.737 455.663 302.579 455.663H172.648C168.49 455.663 165.12 459.034 165.12 463.192Z" fill="#13989B"/>
<path d="M184.934 431.797C184.934 435.955 188.305 439.326 192.463 439.326H288.025C292.183 439.326 295.554 435.956 295.554 431.797C295.554 427.64 292.183 424.269 288.025 424.269H192.463C188.305 424.269 184.934 427.64 184.934 431.797Z" fill="#13989B"/>
<path d="M161.322 491.263V509.33C161.322 514.757 165.721 519.157 171.148 519.157H262.659C269.961 519.157 275.88 513.237 275.88 505.935V491.263H161.322Z" fill="#C8FBFC"/>
<path d="M161.322 500.391H147.15V510.43H161.322V500.391Z" fill="#6D6E71"/>
<path d="M360.57 491.263H275.881V505.21H360.57V491.263Z" fill="#4F4F4F"/>
<path d="M585.307 505.21V307.247H599.728V494.187C599.728 500.275 594.793 505.21 588.705 505.21H585.307Z" fill="#3AC5CE"/>
<path d="M668.092 422.458C629.047 434.668 605.274 472.782 609.758 511.977L766 460.929C746.898 427.397 706.431 410.47 668.092 422.458Z" fill="#3AC5CE"/>
<path d="M597.142 307.247C597.142 307.247 595.941 415.733 599.388 457.961L669.856 407.905C669.856 407.905 654.783 386.218 614.608 307.247H597.142Z" fill="#13989B"/>
<path d="M601.658 300.914C601.658 300.914 621.95 391.985 661.728 397.537L662.718 396.459L611.837 300.532L601.658 300.914Z" fill="#2AB5B5"/>
<path d="M514.251 505.833H425.141V518.234H514.251V505.833Z" fill="#666666"/>
<path d="M388.708 87.5365C402.772 87.5365 414.173 76.1357 414.173 62.072C414.173 48.0083 402.772 36.6074 388.708 36.6074C374.645 36.6074 363.244 48.0083 363.244 62.072C363.244 76.1357 374.645 87.5365 388.708 87.5365Z" fill="#13989B"/>
<path d="M432.365 17.9456L452.246 6.33258C452.246 6.33258 482.362 26.8036 480.393 58.4942L472.816 60.315C472.816 60.315 471.339 36.608 432.365 17.9456Z" fill="white"/>
<path d="M440.114 453.963C440.114 453.963 442.017 465.808 459.577 466.1C481.195 466.459 478.129 451.968 478.129 451.968L440.114 453.963Z" fill="#FFAB84"/>
<path d="M372.133 344.497H386.135V343.764C386.135 330.583 375.45 319.897 362.269 319.897H283.871C282.142 319.897 280.459 320.085 278.834 320.435C278.889 320.675 284.594 344.497 372.133 344.497Z" fill="#13989B"/>
<path d="M372.133 344.497C284.594 344.497 278.889 320.675 278.834 320.434C268.072 322.747 260.004 332.311 260.004 343.764V355.126L386.135 356.139V344.496H372.133V344.497Z" fill="#414042"/>
<path d="M3.44277 533.665H168.542C170.444 533.665 171.985 535.094 171.985 536.858C171.985 538.621 170.443 540.051 168.542 540.051H3.44277C1.54155 540.051 0 538.622 0 536.858C0 535.094 1.54155 533.665 3.44277 533.665Z" fill="#BCBEC0"/>
<path d="M4.30459 550.039H169.404C171.306 550.039 172.847 551.468 172.847 553.233C172.847 554.996 171.305 556.425 169.404 556.425H4.30459C2.40336 556.425 0.861816 554.997 0.861816 553.233C0.861816 551.468 2.40336 550.039 4.30459 550.039Z" fill="#BCBEC0"/>
<path d="M173.82 498.237H262.202C264.702 498.237 266.728 500.263 266.728 502.763C266.728 505.262 264.702 507.288 262.202 507.288H173.82C171.32 507.288 169.294 505.262 169.294 502.763C169.294 500.263 171.32 498.237 173.82 498.237Z" fill="white"/>
<path d="M585.307 491.263H360.57V505.21H585.307V491.263Z" fill="#3AC5CE"/>
<path d="M428.071 85.9312C429.807 85.9312 431.213 84.5246 431.213 82.7895C431.213 81.0544 429.807 79.6478 428.071 79.6478C426.336 79.6478 424.93 81.0544 424.93 82.7895C424.93 84.5246 426.336 85.9312 428.071 85.9312Z" fill="black"/>
<path d="M429.423 83.3652C430.169 83.3652 430.774 82.7602 430.774 82.0139C430.774 81.2675 430.169 80.6625 429.423 80.6625C428.677 80.6625 428.072 81.2675 428.072 82.0139C428.072 82.7602 428.677 83.3652 429.423 83.3652Z" fill="white"/>
<path d="M451.492 85.9318C453.227 85.9318 454.634 84.5249 454.634 82.7895C454.634 81.0541 453.227 79.6472 451.492 79.6472C449.756 79.6472 448.349 81.0541 448.349 82.7895C448.349 84.5249 449.756 85.9318 451.492 85.9318Z" fill="black"/>
<path d="M452.843 83.3652C453.589 83.3652 454.194 82.7602 454.194 82.0139C454.194 81.2675 453.589 80.6625 452.843 80.6625C452.097 80.6625 451.492 81.2675 451.492 82.0139C451.492 82.7602 452.097 83.3652 452.843 83.3652Z" fill="white"/>
<path d="M388.384 72.3026C393.144 72.3026 397.002 68.4443 397.002 63.6848C397.002 58.9253 393.144 55.0669 388.384 55.0669C383.625 55.0669 379.767 58.9253 379.767 63.6848C379.767 68.4443 383.625 72.3026 388.384 72.3026Z" fill="#92F7F7"/>
<path d="M441.765 127.971L409.015 120.501L420.794 94.9334L459.864 98.3808L456.417 113.894L441.765 127.971Z" fill="#F1F2F2"/>
<path d="M402.265 84.0168L423.811 96.9444" stroke="#F1F2F2" stroke-width="4" stroke-miterlimit="10"/>
<path d="M402.408 105.994L423.954 118.921" stroke="#F1F2F2" stroke-width="4" stroke-miterlimit="10"/>
<path d="M131.694 199.216H113.883V338.452H131.694V199.216Z" fill="#3F3F3F"/>
<path d="M133.418 239.628H112.159V270.654H133.418V239.628Z" fill="#4AACD3" stroke="#231F20" stroke-width="3" stroke-miterlimit="10"/>
<path d="M205.813 199.312H188.001V338.548H205.813V199.312Z" fill="#3F3F3F"/>
<path d="M207.536 239.723H186.278V270.749H207.536V239.723Z" fill="#4AACD3" stroke="#231F20" stroke-width="3" stroke-miterlimit="10"/>
<path d="M750.018 345.73L638.84 298.616V239.436L748.582 173.936L750.018 345.73Z" fill="url(#paint0_linear_402_23)"/>
<line x1="1.89575" y1="540.677" x2="169.677" y2="540.677" stroke="white" stroke-width="5"/>
<line x1="1.89575" y1="557.739" x2="169.677" y2="557.74" stroke="white" stroke-width="5"/>
<defs>
<linearGradient id="paint0_linear_402_23" x1="638.841" y1="259.833" x2="750.018" y2="259.833" gradientUnits="userSpaceOnUse">
<stop stop-color="#FAFF97"/>
<stop offset="0.0446" stop-color="#F9FF9E"/>
<stop offset="0.1974" stop-color="#F8FFB1"/>
<stop offset="0.3547" stop-color="#F7FFBC"/>
<stop offset="0.5223" stop-color="#F7FFC0"/>
<stop offset="1" stop-color="#FFFFF4"/>
</linearGradient>
</defs>
</svg>
